# xmcd CD database file
#
# Track frame offsets:
#	150
#	23726
#	45118
#	67172
#	93307
#	113800
#	131205
#	153755
#	175831
#	198569
#	219469
#	241672
#	262290
#	291397
#	312912
#	336032
#
# Disc length: 4687 seconds
#
# Revision: 0
# Processed by: cddbd v1.5.1PL0 Copyright (c) Steve Scherf et al.
# Submitted via: CDex 1.51
#
DISCID=e7124d10
DTITLE=Marc Anthony - Grandes Exitos
DYEAR=2003
DGENRE=Salsa
TTITLE0=Te Conozco bien
TTITLE1=Celos
TTITLE2=Este loco que te mira
TTITLE3=You song to me - Tu me cantaras
TTITLE4=Barco a la deriva
TTITLE5=Me haces falta
TTITLE6=Palabra del alma
TTITLE7=Se me sigue olvidando
TTITLE8=Hasta que te conoci
TTITLE9=Hasta ayer
TTITLE10=Nadie como tu
TTITLE11=Y sigues aqui
TTITLE12=Y hubo alguien
TTITLE13=Si te vas
TTITLE14=No sabes como duele
TTITLE15=Un mal sueño
EXTD=YEAR: 2003
EXTT0=
EXTT1=
EXTT2=
EXTT3=
EXTT4=
EXTT5=
EXTT6=
EXTT7=
EXTT8=
EXTT9=
EXTT10=
EXTT11=
EXTT12=
EXTT13=
EXTT14=
EXTT15=
PLAYORDER=
